HIERARCHY
ROOT pelvis
{
	OFFSET 0.000000 0.000000 0.000000
	CHANNELS 6 Xposition Yposition Zposition Zrotation Xrotation Yrotation
	JOINT lfemur
	{
		OFFSET 11.446000 0.000000 0.000000
		CHANNELS 3 Zrotation Xrotation Yrotation
		JOINT ltibia
		{
			OFFSET 0.000000 -42.030400 0.000000
			CHANNELS 3 Zrotation Xrotation Yrotation
			JOINT lfoot
			{
				OFFSET 0.000000 -39.930200 0.000000
				CHANNELS 3 Zrotation Xrotation Yrotation
				JOINT ltoes
				{
					OFFSET 0.000000 0.000000 11.775800
					CHANNELS 3 Zrotation Xrotation Yrotation
					End Site
					{
					    OFFSET 0.000000 0.000000 5.000000
					}
				}
			}
		}
	}
	JOINT rfemur
	{
		OFFSET -11.446000 0.000000 0.000000
		CHANNELS 3 Zrotation Xrotation Yrotation
		JOINT rtibia
		{
			OFFSET 0.000000 -42.030400 0.000000
			CHANNELS 3 Zrotation Xrotation Yrotation
			JOINT rfoot
			{
				OFFSET 0.000000 -39.930200 0.000000
				CHANNELS 3 Zrotation Xrotation Yrotation
				JOINT rtoes
				{
					OFFSET 0.000000 0.000000 11.775800
					CHANNELS 3 Zrotation Xrotation Yrotation
					End Site
					{
					    OFFSET 0.000000 0.000000 5.000000
					}
				}
			}
		}
	}
	JOINT thorax
	{
		OFFSET 0.000000 11.255600 -5.000000
		CHANNELS 3 Zrotation Xrotation Yrotation
		JOINT head
		{
			OFFSET 0.000000 43.799300 0.000000
			CHANNELS 3 Zrotation Xrotation Yrotation
			End Site
			{
			    OFFSET 0.000000 5.000000 0.000000
			}
		}
		JOINT lclavicle
		{
			OFFSET 0.000000 39.863000 0.000000
			CHANNELS 3 Zrotation Xrotation Yrotation
			JOINT lhumerus
			{
				OFFSET 17.380600 4.958300 0.000000
				CHANNELS 3 Zrotation Xrotation Yrotation
				JOINT lradius
				{
					OFFSET 0.000000 -27.561300 0.000000
					CHANNELS 3 Zrotation Xrotation Yrotation
					JOINT lhand
					{
						OFFSET 0.000000 -26.933000 0.000000
						CHANNELS 3 Zrotation Xrotation Yrotation
						End Site
						{
						    OFFSET 0.000000 -5.000000 0.000000
						}
					}
				}
			}
		}
		JOINT rclavicle
		{
			OFFSET 0.000000 39.863000 0.000000
			CHANNELS 3 Zrotation Xrotation Yrotation
			JOINT rhumerus
			{
				OFFSET -17.380600 4.958300 0.000000
				CHANNELS 3 Zrotation Xrotation Yrotation
				JOINT rradius
				{
					OFFSET 0.000000 -27.561300 0.000000
					CHANNELS 3 Zrotation Xrotation Yrotation
					JOINT rhand
					{
						OFFSET 0.000000 -26.933000 0.000000
						CHANNELS 3 Zrotation Xrotation Yrotation
						End Site
						{
						    OFFSET 0.000000 -5.000000 0.000000
						}
					}
				}
			}
		}
	}
}
MOTION
Frames:	18
Frame Time:	0.0333333
50.730000 86.846000 3.816000 -3.107936 -2.683872 -92.084026 -7.922957 -2.712045 -6.004878 -0.000000 22.853988 -0.000000 0.000000 -0.176746 8.917455 -0.000000 -1.350206 0.000000 -5.144183 -4.499307 -3.664830 -0.000000 24.337950 -0.000000 -0.000000 -0.659153 -0.276801 -0.000000 -29.560631 0.000000 -4.606329 3.917554 -0.619740 17.706169 23.326695 -2.113890 3.435142 -0.000000 4.339179 83.033421 -5.385436 64.426617 0.000000 -13.704684 -61.887000 10.113309 2.328394 0.000000 -3.223699 -0.000000 -0.322242 -79.489973 7.120825 -66.157890 0.000001 -22.359645 38.827262 -11.297172 0.428697 -0.000000 
50.748200 86.855500 3.881900 -3.183120 -2.629693 -92.014214 -7.918048 -2.586947 -5.982116 -0.000000 22.729285 -0.000000 0.000000 -0.139407 8.913264 -0.000000 -1.352851 0.000000 -5.115357 -4.329228 -3.649053 -0.000000 24.143134 0.000000 -0.000000 -0.590506 -0.370856 -0.000000 -29.560259 -0.000000 -4.561433 3.868439 -0.676288 17.901475 23.325370 -2.345043 3.617752 0.000000 3.700736 82.962643 -4.770093 65.671310 -0.000001 -13.450031 -62.996194 9.946079 1.666379 -0.000000 -3.369774 0.000000 -0.387839 -79.157700 6.981745 -66.447199 0.000001 -22.320993 39.194917 -11.172031 0.387032 -0.000000 
50.790900 86.887500 3.964000 -3.186663 -2.642396 -91.976136 -7.963692 -2.516253 -6.033702 0.000000 22.522367 -0.000000 0.000000 -0.032874 8.852186 -0.000000 -1.346273 -0.000000 -5.215539 -4.271565 -3.857942 -0.000000 23.983743 -0.000000 0.000000 -0.511183 -0.243532 -0.000000 -29.559118 -0.000000 -4.583429 3.816252 -0.665403 18.070266 23.367303 -2.545392 3.607611 -0.000000 3.638602 82.974656 -4.817555 65.554966 -0.000000 -13.391552 -62.981456 10.143345 1.848281 -0.000000 -3.256223 -0.000000 -0.461756 -79.128676 6.985286 -66.154004 -0.000001 -22.362217 38.916020 -11.163985 0.383617 0.000000 
50.824000 86.899100 4.051500 -3.199282 -2.587008 -91.978651 -7.977978 -2.487872 -6.017582 0.000000 22.442364 -0.000000 0.000000 -0.019774 8.926936 -0.000000 -1.348745 -0.000000 -5.229178 -4.165162 -3.904196 0.000000 23.740672 -0.000000 -0.000000 -0.459853 -0.176592 -0.000000 -29.558220 -0.000000 -4.460072 3.746169 -0.611451 18.137033 23.430645 -2.720563 3.515441 0.000000 3.391587 82.877197 -4.557450 65.349489 0.000000 -13.462916 -62.710763 10.185373 1.955103 -0.000000 -3.274607 -0.000000 -0.501304 -79.102603 7.009621 -66.188633 -0.000001 -22.309228 38.953403 -11.054514 0.346471 -0.000000 
50.855700 86.926300 4.100200 -3.163429 -2.492408 -92.014641 -7.890729 -2.514089 -5.895957 0.000000 22.377619 -0.000000 -0.000000 0.009329 8.847205 -0.000000 -1.345426 0.000000 -5.136845 -4.077989 -3.820834 -0.000000 23.428529 -0.000000 -0.000000 -0.275748 -0.210080 -0.000000 -29.558510 -0.000000 -4.387332 3.676127 -0.693951 18.211802 23.499703 -2.693196 3.579771 0.000000 3.277832 82.619794 -4.225118 65.423084 0.000001 -13.565982 -62.968168 10.204136 1.948167 -0.000000 -3.261743 -0.000000 -0.434448 -78.965114 6.914100 -66.347819 -0.000000 -22.243758 39.393925 -10.775369 0.251809 0.000000 
50.880800 86.960800 4.147000 -3.207701 -2.381102 -92.058538 -7.807359 -2.419286 -5.902004 0.000000 22.257849 -0.000000 -0.000000 0.032403 8.802548 -0.000000 -1.344584 0.000000 -5.020337 -3.856630 -3.707629 -0.000000 22.997197 -0.000000 -0.000000 0.017250 -0.221955 -0.000000 -29.559757 -0.000000 -4.295041 3.663799 -0.772973 18.228363 23.637315 -2.601209 3.463171 -0.000000 3.404586 82.703241 -4.206621 65.627576 0.000001 -13.436297 -63.058739 9.816074 2.000910 0.000000 -3.247798 -0.000000 -0.494552 -78.855314 6.721058 -66.307107 -0.000001 -22.233717 39.148684 -10.823166 0.268655 -0.000000 
50.935000 86.983000 4.189600 -3.140562 -2.286904 -92.064762 -7.735929 -2.530672 -5.881556 0.000000 22.268527 -0.000000 -0.000000 0.104211 8.811676 0.000000 -1.341484 -0.000000 -4.930776 -3.783730 -3.661825 0.000000 22.583392 0.000000 0.000000 0.103828 -0.355616 -0.000000 -29.558562 -0.000000 -4.305933 3.489586 -0.833340 18.459136 23.706545 -2.625833 3.666301 0.000000 3.456102 82.289851 -4.074963 65.378522 0.000000 -13.631008 -62.679097 9.943839 1.999910 -0.000000 -2.809581 0.000000 -0.382681 -79.292382 6.841415 -65.980052 -0.000001 -22.189631 38.603675 -10.566228 0.181236 -0.000000 
51.009700 86.993100 4.258100 -3.076027 -2.266932 -92.180205 -7.763693 -2.565753 -5.930755 0.000000 22.136076 -0.000000 0.000000 0.138500 8.922052 0.000000 -1.343479 -0.000000 -4.954432 -3.896097 -3.625095 0.000000 22.521061 0.000000 0.000000 0.192850 -0.283312 -0.000000 -29.558343 0.000000 -4.265596 3.416150 -0.717927 18.470505 23.638180 -2.659403 3.612927 0.000000 3.394000 82.213028 -3.944903 65.583973 0.000001 -13.512082 -63.101609 10.169166 1.934986 0.000000 -2.800212 -0.000000 -0.360934 -79.355554 7.031451 -65.886524 0.000001 -22.179428 38.763237 -10.464436 0.146281 0.000000 
51.053600 87.018100 4.291700 -3.070095 -2.230024 -92.169942 -7.740509 -2.537040 -5.939937 0.000000 21.994090 -0.000000 -0.000000 0.235355 8.939731 -0.000000 -1.340179 -0.000000 -4.951389 -3.831512 -3.749020 -0.000000 22.311970 -0.000000 -0.000000 0.372924 -0.087006 -0.000000 -29.559467 -0.000000 -4.285235 3.435740 -0.729541 18.547711 23.566109 -2.613269 3.555778 -0.000000 3.377820 82.197946 -3.760897 65.387712 0.000000 -13.656010 -62.574526 9.770726 1.985487 -0.000000 -2.732160 -0.000000 -0.554962 -79.432707 6.855350 -66.011994 -0.000000 -22.113750 38.966532 -10.771228 0.250655 -0.000000 
51.138300 87.024900 4.321900 -3.028939 -2.213811 -92.185816 -7.746898 -2.612683 -5.971594 0.000000 21.957552 -0.000000 0.000000 0.284751 8.981494 -0.000000 -1.340318 0.000000 -4.933427 -3.931513 -3.633231 0.000000 22.308444 -0.000000 -0.000000 0.381768 -0.203105 -0.000000 -29.558609 0.000000 -4.320538 3.452052 -0.705438 18.672835 23.450537 -2.627323 3.392822 -0.000000 3.492272 82.506179 -3.919436 65.611010 0.000001 -13.321213 -62.699944 9.601526 1.910817 0.000000 -2.784592 0.000000 -0.659090 -79.399658 6.814911 -66.168157 0.000001 -22.021606 39.126791 -10.495635 0.157907 -0.000000 
51.210700 87.018900 4.334300 -2.978347 -2.185781 -92.214291 -7.721454 -2.738985 -5.948098 -0.000000 22.021679 -0.000000 -0.000000 0.264167 8.904495 0.000000 -1.337406 -0.000000 -4.895713 -4.068591 -3.561714 0.000000 22.357362 0.000000 -0.000000 0.402702 -0.248446 0.000000 -29.558777 -0.000000 -4.360099 3.493414 -0.693358 18.656196 23.305662 -2.585667 3.427616 0.000000 3.557397 82.462994 -4.007681 66.081052 0.000000 -13.149431 -63.013356 9.876774 1.990731 -0.000000 -2.821228 0.000000 -0.819154 -79.315192 6.664167 -66.264961 -0.000000 -22.077738 39.278049 -10.664499 0.214998 0.000000 
51.302300 87.020400 4.342200 -2.898437 -2.196545 -92.198077 -7.700262 -2.896321 -5.778335 -0.000000 22.023792 -0.000000 -0.000000 0.338673 8.749001 -0.000000 -1.341383 -0.000000 -4.895940 -4.219693 -3.484710 0.000000 22.386027 -0.000000 -0.000000 0.320855 -0.399230 -0.000000 -29.557271 -0.000000 -4.455303 3.546394 -0.700115 18.752745 23.198748 -2.537303 3.276006 0.000000 3.492734 82.676528 -3.904486 66.155454 0.000001 -13.089037 -62.957097 9.835628 1.832459 -0.000000 -2.724473 0.000000 -0.805064 -79.499720 6.814154 -65.916584 -0.000001 -22.107891 38.678975 -10.369567 0.114298 -0.000000 
51.371400 87.012000 4.337800 -2.855264 -2.204931 -92.190514 -7.726370 -2.984243 -5.911158 -0.000000 22.060450 0.000000 -0.000000 0.285453 8.826886 -0.000000 -1.340402 -0.000000 -4.898564 -4.374362 -3.510336 0.000000 22.514695 -0.000000 -0.000000 0.403176 -0.322021 -0.000000 -29.559146 0.000000 -4.534382 3.578621 -0.712284 18.775461 23.260736 -2.476730 3.237306 0.000000 3.440317 82.543179 -3.865506 66.126134 0.000001 -13.167603 -63.159023 10.263403 2.179669 0.000000 -2.816273 0.000000 -0.804883 -79.364205 6.782803 -66.015002 -0.000000 -22.262671 38.811410 -10.577977 0.184996 0.000000 
51.442000 87.021100 4.317700 -2.767106 -2.176786 -92.159240 -7.695305 -3.133408 -6.018283 -0.000000 22.099387 -0.000000 -0.000000 0.268209 8.885147 0.000000 -1.346581 -0.000000 -4.856837 -4.474278 -3.508136 0.000000 22.455068 0.000000 0.000000 0.381471 -0.370720 -0.000000 -29.557581 -0.000000 -4.595091 3.598751 -0.750623 18.692729 23.357189 -2.454613 3.174521 -0.000000 3.301940 82.372871 -3.542987 65.611565 0.000000 -13.457270 -62.964937 9.800337 1.812296 -0.000000 -2.800917 -0.000000 -0.787183 -79.285191 6.764283 -66.036466 0.000000 -22.367367 39.148796 -10.801493 0.260014 0.000000 
51.509200 87.018400 4.276200 -2.726292 -2.152135 -92.201861 -7.633322 -3.251055 -5.950729 -0.000000 22.160780 -0.000000 -0.000000 0.274752 8.845601 -0.000000 -1.344295 -0.000000 -4.796978 -4.577345 -3.461852 -0.000000 22.481359 0.000000 0.000000 0.353116 -0.412110 -0.000000 -29.557192 -0.000000 -4.675345 3.643613 -0.738815 18.629653 23.338833 -2.409062 3.191047 0.000000 3.284430 82.086399 -3.496240 65.609679 -0.000000 -13.459978 -62.738774 10.161252 1.960069 0.000000 -2.746984 0.000000 -0.771817 -79.322511 6.718448 -65.831709 -0.000001 -22.299428 38.964889 -10.654777 0.210178 -0.000000 
51.555700 87.016400 4.229700 -2.651334 -2.079722 -92.188206 -7.526865 -3.408373 -5.921501 0.000000 22.281917 -0.000000 -0.000000 0.207479 8.816975 -0.000000 -1.342633 -0.000000 -4.679333 -4.609874 -3.435765 0.000000 22.328916 -0.000000 0.000000 0.416249 -0.384104 -0.000000 -29.557489 -0.000000 -4.670415 3.678027 -0.755693 18.533255 23.329053 -2.282518 3.160160 -0.000000 3.234349 81.819578 -3.499180 66.187437 0.000001 -13.373398 -62.879115 9.944522 1.759292 -0.000000 -2.659022 0.000000 -0.716515 -79.412469 6.802009 -65.529695 0.000000 -22.312709 38.637058 -10.496540 0.156315 -0.000000 
51.574200 87.017100 4.181300 -2.594553 -2.042614 -92.135650 -7.449084 -3.541798 -5.917516 -0.000000 22.409227 -0.000000 0.000000 0.198263 8.752734 -0.000000 -1.343304 -0.000000 -4.599650 -4.624683 -3.463964 -0.000000 22.269179 0.000000 0.000000 0.481682 -0.453233 0.000000 -29.557616 -0.000000 -4.728176 3.717829 -0.800981 18.444687 23.307360 -2.195921 3.047923 0.000000 3.453616 81.770949 -3.658442 65.958747 0.000000 -13.389468 -62.963506 9.386850 1.625604 0.000000 -2.685448 -0.000000 -0.827655 -79.362982 6.666200 -65.297754 -0.000001 -22.313414 38.300425 -10.411370 0.128152 0.000000 
51.568800 87.033000 4.140900 -2.527366 -2.023670 -92.123096 -7.379707 -3.581504 -5.829202 -0.000000 22.360442 -0.000000 -0.000000 0.229791 8.637694 -0.000000 -1.346360 0.000000 -4.550534 -4.631525 -3.485396 -0.000000 22.172224 -0.000000 -0.000000 0.591898 -0.358532 0.000000 -29.558381 -0.000000 -4.772559 3.664749 -0.806391 18.390389 23.249427 -2.298531 2.887148 -0.000000 3.816898 81.815857 -4.088516 65.364119 -0.000001 -13.442403 -62.204326 9.713589 1.846064 -0.000000 -2.744355 -0.000000 -0.778502 -79.298249 6.695300 -65.509638 0.000001 -22.280189 38.676578 -10.474406 0.150383 -0.000000 
